# xmcd
#
# Track frame offsets: 
#        150
#        15921
#        31435
#        44519
#        57957
#        70950
#        83871
#        96341
#        105655
#        121935
#
# Disc length: 1773 seconds
#
# Revision: 0
# Processed by: cddbd v1.5.2PL0 Copyright (c) Steve Scherf et al.
# Submitted via: ExactAudioCopy v1.0b3
#
DISCID=7e06eb0a
DTITLE=Buck Owens - The Buck Owens Show - Live in Las Vegas!
DYEAR=1969
DGENRE=Country
TTITLE0=Big In Vegas
TTITLE1=Lodi
TTITLE2=Rovin' Gambler
TTITLE3=Cold, Cold Wind
TTITLE4=Las Vegas Lament
TTITLE5=Maybe If I Close My Eyes
TTITLE6=Goin' Home To Your Mother
TTITLE7=Comedy Dialogue
TTITLE8=Along Came Jones
TTITLE9=We're Gonna Let The Good Times Roll
EXTD=
EXTT0=
EXTT1=
EXTT2=
EXTT3=
EXTT4=
EXTT5=
EXTT6=
EXTT7=
EXTT8=
EXTT9=
PLAYORDER=
